<svg width="17" height="17" viewBox="0 0 17 17" fill="none" xmlns="http://www.w3.org/2000/svg">
<path d="M15.1111 0C15.6121 0 16.0925 0.199007 16.4468 0.553243C16.801 0.907478 17 1.38792 17 1.88889V15.1111C17 15.6121 16.801 16.0925 16.4468 16.4468C16.0925 16.801 15.6121 17 15.1111 17H1.88889C1.38792 17 0.907478 16.801 0.553243 16.4468C0.199007 16.0925 0 15.6121 0 15.1111V1.88889C0 1.38792 0.199007 0.907478 0.553243 0.553243C0.907478 0.199007 1.38792 0 1.88889 0H15.1111ZM14.6389 14.6389V9.63333C14.6389 8.81676 14.3145 8.03363 13.7371 7.45623C13.1597 6.87883 12.3766 6.55444 11.56 6.55444C10.7572 6.55444 9.82222 7.04556 9.36889 7.78222V6.73389H6.73389V14.6389H9.36889V9.98278C9.36889 9.25556 9.95444 8.66056 10.6817 8.66056C11.0323 8.66056 11.3687 8.79986 11.6166 9.04782C11.8646 9.29579 12.0039 9.6321 12.0039 9.98278V14.6389H14.6389ZM3.66444 5.25111C4.08525 5.25111 4.48883 5.08395 4.78639 4.78639C5.08395 4.48883 5.25111 4.08525 5.25111 3.66444C5.25111 2.78611 4.54278 2.06833 3.66444 2.06833C3.24113 2.06833 2.83515 2.23649 2.53582 2.53582C2.23649 2.83515 2.06833 3.24113 2.06833 3.66444C2.06833 4.54278 2.78611 5.25111 3.66444 5.25111ZM4.97722 14.6389V6.73389H2.36111V14.6389H4.97722Z" fill="#4200FF"/>
</svg>
