<svg width="18" height="15" viewBox="0 0 18 15" fill="none" xmlns="http://www.w3.org/2000/svg">
<path d="M18 1.76471C17.3375 2.07353 16.6233 2.27647 15.8834 2.37353C16.6405 1.90588 17.2256 1.16471 17.501 0.273529C16.7868 0.714706 15.9952 1.02353 15.1606 1.2C14.4809 0.441177 13.5258 0 12.4417 0C10.4197 0 8.76769 1.69412 8.76769 3.78529C8.76769 4.08529 8.8021 4.37647 8.86233 4.65C5.79924 4.49118 3.0717 2.98235 1.25621 0.697059C0.937859 1.25294 0.75717 1.90588 0.75717 2.59412C0.75717 3.90882 1.40249 5.07353 2.40057 5.73529C1.78968 5.73529 1.2218 5.55882 0.722754 5.29412V5.32059C0.722754 7.15588 1.99618 8.69118 3.6826 9.03529C3.14116 9.18724 2.57274 9.20839 2.02199 9.09706C2.25568 9.84925 2.71337 10.5074 3.3307 10.9791C3.94804 11.4507 4.69398 11.7121 5.46367 11.7265C4.15896 12.7857 2.54168 13.3582 0.877629 13.35C0.585086 13.35 0.292543 13.3324 0 13.2971C1.6348 14.3735 3.57935 15 5.66157 15C12.4417 15 16.1673 9.22941 16.1673 4.22647C16.1673 4.05882 16.1673 3.9 16.1587 3.73235C16.8815 3.20294 17.501 2.53235 18 1.76471Z" fill="#4200FF"/>
</svg>
