<svg width="55" height="44" viewBox="0 0 55 44" fill="none" xmlns="http://www.w3.org/2000/svg">
<path fill-rule="evenodd" clip-rule="evenodd" d="M50.9475 8.47952C55.4609 7.86872 56.3869 6.76163 52.7993 6.22719L51.1019 5.95996L51.6806 4.85286C52.6834 2.90595 52.7993 0.997178 51.9891 0.424557C51.1019 -0.224426 51.3333 -0.262606 48.3244 1.26441C45.3539 2.79143 45.0837 2.79143 42.5764 1.83704C35.594 -0.873408 28.9585 0.729971 25.1782 6.0745L23.5579 8.36501L22.0534 6.6853C18.1958 2.33332 3.42076 1.1499 0.720386 4.96741C-0.861253 7.21974 0.296068 12.4496 2.88073 14.7021C3.84514 15.5419 4.15385 16.0381 3.92239 16.4199C2.95795 17.9471 5.04104 21.23 7.70284 22.337C8.82158 22.7954 8.89877 22.9478 8.51298 23.5968C7.27852 25.5821 11.0205 29.7432 15.2639 31.0411C16.537 31.4229 11.9077 37.3782 9.24593 38.7523C7.54854 39.6306 8.55156 41.1957 10.8276 41.1957C11.522 41.1957 12.795 41.5775 13.6822 41.9974C23.6737 47.0365 41.3804 42.0736 47.2442 32.6062C51.6806 25.4293 53.2236 11.9153 50.0217 10.3119C49.0187 9.73931 49.4042 8.6704 50.9475 8.47952ZM44.6211 28.445C37.9086 37.7981 25.3323 43.7915 18.2728 41.0048C17.3856 40.6614 15.9968 40.3939 15.1481 40.3939C13.2193 40.3939 13.1808 40.5086 15.8426 37.8362C20.5104 33.217 21.4361 29.6667 18.1572 28.9415C12.8336 27.7198 10.6346 25.4674 12.062 22.8335C12.4091 22.2226 12.2163 21.9936 10.789 21.3447C4.96388 18.5577 8.12719 15.5419 8.0886 15.58C8.55153 15.0457 8.35865 14.2059 7.70284 13.9003C1.37623 10.9227 2.8422 6.22719 10.0561 6.26537C18.0802 6.26537 18.3116 6.41807 22.2463 13.786C23.7896 16.6489 25.8725 19.6268 27.0685 19.0541C28.2645 18.4814 27.8784 16.6873 26.9141 14.893C26.3739 13.8622 26.4127 13.7094 27.4158 12.1444C31.8134 5.34915 37.0211 2.86777 42.769 4.77653C43.9265 5.15828 45.1225 5.311 46.0485 5.15828C47.7459 4.89107 48.0544 5.69272 46.9354 7.37243C46.2797 8.36501 46.5111 9.51026 47.3598 9.51026C49.8288 9.4339 47.63 24.246 44.6211 28.445Z" fill="#71430C"/>
</svg>
