<svg width="75" height="52" viewBox="0 0 75 52" fill="none" xmlns="http://www.w3.org/2000/svg">
<path fill-rule="evenodd" clip-rule="evenodd" d="M49.0747 3.82437C49.6647 2.84878 49.3522 1.57958 48.3766 0.989537C47.401 0.399495 46.1318 0.712048 45.5418 1.68764C44.7935 2.92481 44.1104 4.19007 43.4547 5.40434L43.419 5.47054C42.7443 6.72018 42.0967 7.91664 41.3942 9.07148C40.8017 10.0456 41.111 11.3156 42.0851 11.9081C43.0592 12.5006 44.3292 12.1913 44.9217 11.2172C45.6881 9.95735 46.3845 8.66861 47.0521 7.43223L47.0663 7.40593C47.7369 6.16387 48.3791 4.9745 49.0747 3.82437ZM19.2684 2.66702C20.3348 2.26349 21.5263 2.80081 21.9299 3.86716C22.2799 4.79221 22.6687 5.71066 23.0766 6.66366L23.2038 6.96053C23.5682 7.81094 23.9461 8.69263 24.2991 9.58587C24.7182 10.6462 24.1984 11.8455 23.1381 12.2646C22.0778 12.6837 20.8785 12.1639 20.4594 11.1036C20.1293 10.2685 19.7753 9.44225 19.4077 8.58439L19.2809 8.28843C18.873 7.33536 18.4528 6.34454 18.0683 5.32847C17.6647 4.26212 18.2021 3.07055 19.2684 2.66702ZM35.7211 21.2282C34.9014 20.5912 33.7362 20.662 32.9996 21.3936C30.2523 24.1221 28.1432 26.6621 26.0252 29.5665C23.6968 27.8807 21.2917 26.4792 18.5755 25.2632C17.8828 24.9531 17.0759 25.0481 16.4741 25.5105C15.8724 25.9729 15.5728 26.7281 15.694 27.4773C16.7929 34.2667 18.333 40.9342 20.2494 47.5235C20.4069 48.0651 20.7793 48.5187 21.2798 48.7788C21.7804 49.0389 22.3655 49.0829 22.8993 48.9005C24.079 48.4973 25.1087 48.2431 26.0927 48.0789C25.4305 48.7801 25.3323 49.8734 25.9119 50.6899C26.5718 51.6197 27.8605 51.8384 28.7902 51.1785C30.3731 50.055 32.1424 49.1474 34.0247 48.1818L34.0253 48.1815C34.3416 48.0192 34.661 47.8554 34.9833 47.6886C36.3344 47.7086 37.6238 47.7727 38.9035 47.8791C38.0213 48.4186 37.6645 49.5457 38.1097 50.5067C38.5889 51.5413 39.816 51.9915 40.8505 51.5123C41.4374 51.2404 42.0111 50.9696 42.5771 50.7023L42.5772 50.7023C43.8909 50.082 45.1631 49.4814 46.4625 48.9336C46.8022 48.9956 47.1471 49.0598 47.4976 49.1261C48.5659 49.3283 49.6079 48.6673 49.8802 47.6146L49.9023 47.5289L50.0192 47.477C51.267 46.9222 52.5559 46.349 53.8136 45.7352C54.8382 45.2351 55.2635 43.9991 54.7634 42.9744C54.2633 41.9498 53.0272 41.5246 52.0026 42.0247C51.7303 42.1576 51.4573 42.2881 51.1831 42.4171C51.4324 41.3929 51.6778 40.3673 51.9201 39.3409C52.6956 38.9978 53.4706 38.6659 54.2586 38.3284L54.2588 38.3283L54.2589 38.3283C54.8164 38.0895 55.3805 37.8479 55.956 37.5975C57.0015 37.1427 57.4804 35.9264 57.0256 34.8809C56.5707 33.8354 55.3545 33.3566 54.309 33.8114C53.9035 33.9878 53.4911 34.1651 53.0744 34.3438C53.3043 33.329 53.5316 32.3146 53.7569 31.3011C53.9221 31.2356 54.0846 31.1706 54.2432 31.1071L54.2433 31.1071C54.3606 31.0601 54.4758 31.014 54.5883 30.9693C55.197 30.7272 55.7559 30.5126 56.3092 30.3383C57.3966 29.9956 58.0004 28.8363 57.6578 27.7489C57.3151 26.6614 56.1558 26.0577 55.0684 26.4003C54.9837 26.427 54.8995 26.4542 54.8158 26.4819L54.8514 26.3181C55.0177 25.5541 54.738 24.7617 54.1291 24.2713C53.5201 23.7809 52.6864 23.6766 51.9754 24.0018C48.812 25.4489 46.0282 27.1856 43.2943 29.0655C41.1809 26.2093 38.1019 23.0783 35.7211 21.2282ZM28.1619 33.6804C30.2616 30.6789 32.1799 28.2123 34.5935 25.6684L31.8671 43.5861C31.4843 43.5974 31.1079 43.6059 30.7351 43.6144C28.4477 43.6664 26.2966 43.7152 23.6465 44.3763C22.4042 39.9117 21.343 35.4156 20.4823 30.873C22.1063 31.8204 23.6431 32.8858 25.185 34.1125C25.6308 34.4671 26.2032 34.6218 26.7669 34.54C27.3306 34.4582 27.8354 34.1471 28.1619 33.6804ZM34.5935 25.6684L31.8672 43.5861C37.2323 43.4273 41.3792 43.845 46.3584 44.7204C47.609 39.7708 48.7624 34.759 49.8715 29.7508C47.8811 30.9139 45.9626 32.2182 43.9556 33.6412C43.4877 33.973 42.9029 34.0951 42.3414 33.9784C41.7798 33.8617 41.2922 33.5166 40.9953 33.0259C39.627 30.7644 36.9443 27.7719 34.5935 25.6684ZM3.71453 22.2589C2.64595 21.8613 1.45739 22.4053 1.05982 23.4738C0.662253 24.5424 1.20622 25.731 2.2748 26.1285C2.89942 26.3609 3.56028 26.6173 4.23703 26.8798C5.33129 27.3043 6.46705 27.7449 7.55818 28.1263C8.63447 28.5024 9.81195 27.9349 10.1881 26.8586C10.5643 25.7823 9.99679 24.6048 8.9205 24.2286C7.86797 23.8608 6.87902 23.4764 5.85468 23.0782L5.85435 23.0781L5.85371 23.0779L5.85369 23.0778L5.85363 23.0778L5.85357 23.0778L5.85352 23.0778C5.16642 22.8107 4.46337 22.5375 3.71453 22.2589ZM73.8029 21.3277C74.357 22.3242 73.9983 23.5811 73.0018 24.1351C70.7784 25.3713 68.4193 26.4132 66.1866 27.3993C65.8587 27.5441 65.5336 27.6877 65.212 27.8305C64.17 28.2933 62.9501 27.8238 62.4873 26.7818C62.0245 25.7398 62.4941 24.5199 63.536 24.0571C63.8695 23.909 64.2014 23.7623 64.5316 23.6164L64.5317 23.6163C66.7793 22.6231 68.9502 21.6637 70.9955 20.5266C71.9919 19.9725 73.2489 20.3312 73.8029 21.3277Z" fill="#71430C"/>
</svg>
