<svg width="47" height="47" viewBox="0 0 47 47" fill="none" xmlns="http://www.w3.org/2000/svg">
<path fill-rule="evenodd" clip-rule="evenodd" d="M14.6943 0.381159C13.7768 1.07689 14.4267 3.04811 15.8794 4.01439C17.1028 4.82608 22.3403 5.09664 26.1632 4.59417C36.6382 3.16406 42.3727 6.06293 41.7992 12.4404C40.9964 21.7941 40.8435 28.4035 41.4169 31.5729C42.0668 35.2448 41.9905 34.9742 40.7671 34.0466C39.582 33.1576 36.8676 31.341 35.3384 30.3747C34.0768 29.6017 31.8977 28.4808 31.4771 29.9109C30.789 32.2686 28.7246 35.9019 26.8896 38.3755C22.7225 43.98 14.6943 45.2555 7.81291 44.0573C4.90745 43.5548 4.83099 42.5499 4.94568 40.3468C5.32797 32.4619 5.86312 11.4355 6.78063 6.99056C7.23939 4.74878 7.77465 4.36226 9.49499 3.85979C12.5151 3.00946 10.4508 1.54071 6.89543 1.96587C4.41049 2.27508 2.99599 3.20271 2.1167 6.48809C0.77866 11.6287 0.931579 20.9824 0.0140629 40.1149C-0.215316 44.5984 2.38431 46.1445 6.13084 46.531C8.34817 46.7629 11.7124 46.8402 17.3704 46.9175C24.4047 46.9948 27.9217 47.1108 30.292 46.7629C32.9681 46.3764 34.1534 45.4101 37.3264 43.2843C47.3426 36.4816 46.9603 37.1 46.9985 28.1329C47.075 7.57033 44.246 2.31373 32.7006 1.77261C29.3364 1.61801 26.0868 1.23149 24.8635 0.883624C21.6522 -0.00536013 15.6118 -0.314567 14.6943 0.381159ZM21.4991 11.3582C18.7083 11.5901 17.7527 13.6773 20.123 14.3343C22.0727 14.8755 31.8594 14.9914 35.109 14.6435C37.0969 14.4116 36.2941 12.9815 34.6884 12.2858C32.3182 11.2422 27.463 10.8557 21.4991 11.3582ZM16.6823 19.2431C10.1068 19.5523 11.8271 21.3689 14.7326 21.9487C20.6199 23.1082 36.2559 23.2628 36.2559 21.7168C36.2559 19.5909 28.7629 18.6633 16.6823 19.2431ZM16.7204 32.1913C19.4347 32.114 24.8635 31.6502 25.8575 31.341C27.5778 30.7999 25.2076 28.9446 22.2256 28.5194C18.2115 27.9396 16.5292 27.785 15.5735 27.8623C10.5272 28.1329 12.7445 32.3073 16.7204 32.1913ZM41.3786 36.5203C40.9199 36.8681 36.5234 41.3517 31.2477 43.5935C29.2598 44.4438 28.2276 44.3279 29.5274 42.6272C30.5596 40.7333 34.1151 32.7324 34.9944 32.7324C35.4914 32.7711 41.3786 36.5203 41.3786 36.5203Z" fill="#71430C"/>
</svg>
