<svg width="94" height="90" viewBox="0 0 94 90" fill="none" xmlns="http://www.w3.org/2000/svg">
<path d="M8.94621 64.6149C14.0462 62.5749 12.4379 60.5742 7.14175 62.3788C4.23868 63.3595 4.00318 63.5949 4.6701 64.6542C5.29779 65.6742 6.27852 65.6741 8.94621 64.6149Z" fill="#71430C"/>
<path d="M7.53431 66.4589C5.37662 67.2435 4.98431 67.7144 5.96508 68.4597C6.98508 69.2444 9.06423 68.9697 10.9865 67.832C13.6935 66.1843 11.0651 65.1643 7.53431 66.4589Z" fill="#71430C"/>
<path d="M85.0932 44.8031C83.0532 43.3123 82.6609 42.6062 83.4847 42.0962C83.9947 41.7824 87.3294 34.8777 89.644 29.3854C92.5863 22.4023 92.8218 22.5986 81.641 22.4024L73.6771 22.2454L74.4226 20.7939C80.8564 8.16163 78.5026 2.39471 69.1265 7.84778C66.7726 9.22086 63.9087 10.8685 62.771 11.457C60.3387 12.7908 60.4172 13.144 61.3979 6.51398C62.3002 0.354754 60.4957 -1.52838 56.3765 1.257C55.6311 1.767 53.0025 3.807 50.5702 5.76853C45.3918 9.96622 45.8233 9.80935 44.7249 7.6909C42.4887 3.49321 39.154 2.00242 37.781 4.63088C36.0156 8.00472 33.7011 20.284 34.7603 20.637C36.0157 21.0686 38.8796 16.5177 40.488 11.5354C40.7627 10.7508 42.371 12.477 42.881 14.0854C43.5087 16.0862 44.4895 15.6547 50.6488 10.7508C52.9634 8.86774 54.9642 7.37703 55.0034 7.37703C55.0819 7.37703 54.8857 8.67163 54.5718 10.2016C52.5318 20.637 54.8856 19.4209 64.0655 14.8309C72.3432 10.6724 71.5587 10.5547 69.8718 15.8116L67.7534 22.4809C66.3803 26.7962 67.7533 28.6401 71.2449 27.1885C72.8141 26.5216 84.2694 26.7569 84.2694 27.4239C84.2694 27.5808 83.1711 29.7385 81.8764 32.1708C78.4634 38.487 77.914 40.37 76.8548 41.7823C75.8348 43.077 76.6194 45.7446 78.2279 46.0585C79.9148 46.3723 82.1511 48.7262 86.388 52.7669C73.8341 57.71 73.5594 57.0039 80.1501 66.0269C81.994 68.5769 83.4849 70.6953 83.4064 70.7738C83.3279 70.813 80.6995 70.6954 77.5218 70.46C69.4795 69.8716 68.7732 70.303 70.7348 74.3046C71.9509 76.7761 71.9117 76.7762 68.9694 75.05C62.8494 71.4016 58.1419 73.4023 64.0265 77.1684C78.228 86.3092 80.0325 86.5446 78.2279 79.1692C76.894 73.8338 76.9333 73.7554 78.5026 73.9515C80.6602 74.2261 86.7017 74.3831 88.3886 74.9716C93.567 76.8154 92.5864 72.9707 85.6034 64.3007C83.6026 61.79 81.9548 59.593 81.9548 59.3969C81.9548 58.9261 90.4679 55.0816 92.2333 54.7677C93.6064 54.5324 93.724 53.5123 92.7432 51.9823C91.5663 50.1385 88.9379 47.5885 85.0932 44.8031Z" fill="#71430C"/>
<path d="M38.4868 72.8134C46.8822 73.2057 54.0613 76.1872 62.339 71.2049C72.5782 65.0849 64.4967 36.5641 57.9844 27.4234C53.669 21.3818 47.6668 18.1257 40.0168 22.1665C35.3876 24.5988 34.4461 25.3834 28.6791 31.778C25.933 34.7988 22.7944 37.898 21.696 38.6041C20.5975 39.3495 19.2638 40.2519 18.7146 40.6049C5.5723 49.6672 2.62992 51.9819 1.57069 54.1788C-1.33238 60.1811 -0.116307 67.9095 4.43445 72.1464C5.65061 73.2841 15.5367 79.9141 16.0075 79.9141C16.1644 79.9141 16.9492 80.8164 17.7338 81.9149C23.5792 90.0749 30.2483 92.0756 36.486 87.6033C40.9583 84.4257 40.7622 81.8757 35.7014 77.011L34.1322 75.5203L35.7407 72.6172L38.4868 72.8134ZM3.37534 59.828C4.82688 54.8849 12.0846 47.7842 11.4569 51.9034C10.6723 57.0426 15.1837 66.3795 20.1267 69.9495L22.1668 71.4403L20.7152 72.4211C13.3398 77.5995 0.864576 68.498 3.37534 59.828ZM34.3676 82.8564C33.2299 83.7195 32.2099 82.0718 32.2099 82.0718C30.523 80.3848 28.9536 81.0518 30.1306 82.7779C30.9544 83.9549 31.386 83.9157 30.2091 85.1711C28.5222 86.9364 27.7768 86.6226 23.736 82.7779C17.3807 76.6972 16.9884 75.7949 20.0877 74.5395C21.6177 73.9118 21.6569 73.5979 22.5984 75.2848C24.2853 78.3056 26.3253 77.7957 30.4053 77.3249C30.9545 77.2465 31.4645 77.4818 31.8176 77.8741L32.916 79.2079C33.7791 80.0318 35.2307 82.1895 34.3676 82.8564ZM30.366 72.1072C31.7783 73.1664 28.9929 75.2848 27.7767 75.2848C26.9529 75.2848 24.9915 73.8726 24.9915 73.2841C24.9915 72.4995 29.3852 71.3618 30.366 72.1072ZM21.0684 66.1442C12.2023 58.1411 12.0454 49.0396 20.6761 43.7827C25.933 40.5657 30.523 36.7603 33.8184 32.8765C35.0346 31.4642 36.4861 29.228 37.3099 28.5611C38.6045 27.4627 38.8007 28.4434 38.1338 29.5419C29.9738 42.5273 34.4461 58.0233 40.2915 64.418C47.9415 72.7741 60.6129 69.6749 60.6129 60.2987C60.6129 58.1803 59.7106 57.7488 59.0437 59.6318C54.7283 72.2249 46.9214 64.0649 46.8822 64.0649C47.8629 60.6911 48.3336 57.9057 53.0805 55.6303C61.5151 51.6288 54.2575 38.8396 45.2344 41.7819C41.5467 42.998 37.4276 41.0757 37.0745 40.6834C37.0745 40.6441 37.8982 30.5619 44.6459 26.4819C46.5682 25.305 45.1167 23.7357 42.8805 24.8342C41.3898 25.5796 40.7621 24.6772 41.3506 24.0103C42.959 22.2057 45.666 21.6957 47.4313 22.4411C62.9275 28.9534 72.892 71.4403 54.0613 71.0872C51.5505 71.0479 46.2545 70.2634 38.4868 69.3611C31.2291 68.5764 26.4823 71.048 21.0684 66.1442ZM37.9376 46.568C37.9376 46.058 38.4083 45.8226 40.2129 45.6265C41.4683 45.4696 42.7238 45.1949 43.0376 45.038C44.5284 44.1749 44.8814 44.6065 45.1168 47.4703C45.3914 50.6872 46.5292 53.3549 47.9415 54.1003C48.4907 54.3749 48.9222 54.7672 48.9222 54.9241C48.9222 55.238 43.0768 59.5534 42.606 59.5534C41.8607 59.5926 37.9376 48.6472 37.9376 46.568ZM50.6091 44.4103C51.1975 45.3126 52.453 49.9026 52.453 51.158C52.453 52.2564 51.5899 51.2364 50.4522 48.8041C48.8045 45.391 48.9614 41.8995 50.6091 44.4103Z" fill="#71430C"/>
</svg>
