<svg width="51" height="48" viewBox="0 0 51 48" fill="none" xmlns="http://www.w3.org/2000/svg">
<path d="M50.3049 31.6783C49.4314 12.7198 50.7578 8.2552 43.7697 7.18757C42.3462 6.9611 42.3138 6.96111 42.3138 5.69937C42.3138 0.458279 32.0258 -0.674055 31.9287 4.56703C31.8963 5.44055 32.0581 6.66994 32.0581 6.66994L21.8671 7.0258V5.667C21.8994 2.98175 19.473 0.328857 15.9143 0.328857C14.3614 0.328857 12.6791 1.20237 12.582 2.91705C12.4526 5.01995 12.5497 9.54929 12.4527 10.5199C12.1615 13.0433 14.2319 14.4669 16.0436 14.2727C17.5642 14.1433 19.2466 13.2375 19.8613 10.7787L20.0877 9.64636H33.4169L33.5139 11.1993C32.9639 16.2139 39.8227 15.4698 40.0816 12.1375C40.1139 11.5228 40.1786 10.3581 40.2433 9.38753C41.2786 9.38753 45.1284 10.1316 45.4843 10.4228C46.0343 10.8757 45.8403 15.0492 45.8726 17.2168C44.3197 17.1197 38.8845 16.4727 29.0818 16.3433C17.3378 16.1815 7.50271 16.7962 5.94979 16.7962C3.9763 16.7962 6.20864 11.5228 8.73213 10.164C11.4497 8.74049 11.0939 7.76992 8.08508 8.35226C2.06754 9.4846 0.935142 11.7169 0.255742 23.849C-0.45601 36.24 0.320478 43.1958 2.55279 44.5546C5.98215 46.6251 31.7023 47.4986 35.5846 47.4986C37.5258 47.4986 49.2696 37.4047 49.2372 37.437C50.046 36.79 50.499 35.8194 50.4343 34.7841L50.3049 31.6783ZM17.4349 11.4904C17.4349 11.911 17.1113 12.2345 16.6907 12.2669L15.6879 12.3639C15.2026 12.4287 14.8143 12.0404 14.7819 11.5551C14.6525 8.09343 14.1026 3.85528 16.1732 2.56118C16.6261 2.27001 17.2408 2.59354 17.2731 3.11117C17.4672 5.44055 17.4349 5.24642 17.4349 11.4904ZM36.9433 13.3992C35.4228 13.4316 35.0669 5.79643 36.5228 4.7935C37.461 4.14645 38.108 4.9876 38.108 8.57872C38.1404 12.5904 37.5904 13.3669 36.9433 13.3992ZM29.7934 43.4546C28.0464 44.1987 6.11156 43.4222 5.30275 42.6134C3.78218 41.0929 5.17337 18.8668 5.17337 18.8668C5.17337 18.8668 16.7554 18.6727 29.1464 19.0286C40.0815 19.3521 44.6109 19.9021 45.905 19.9668C46.2609 19.9991 47.749 30.0607 47.4255 33.5871C45.7108 32.6813 43.0903 31.6783 41.8286 31.3548C38.8845 30.5783 36.361 30.9666 35.8434 32.5842C34.5169 36.9194 31.1846 42.8723 29.7934 43.4546ZM33.5139 43.6487C33.9669 42.8722 33.9023 43.3899 36.6846 38.1165C39.5963 32.5195 39.0138 33.0695 41.4403 33.8783C42.5402 34.2342 45.0638 35.0753 46.649 35.4959C43.2197 38.7958 38.5609 41.1899 33.5139 43.6487Z" fill="#71430C"/>
<path d="M26.0083 22.7164C23.1613 22.7164 19.9584 22.587 18.8908 22.4576C16.7232 22.1988 14.5879 22.49 15.6232 24.9487C16.5938 27.2458 20.023 28.8957 19.6025 26.8575L19.4407 25.9517C29.6641 25.9517 30.57 25.8546 29.017 26.8575C28.0788 27.4722 23.9378 32.9074 22.8055 35.0103C22.3202 35.9162 21.576 36.9515 21.1231 37.3074C20.1525 38.1162 20.3466 38.6015 21.8671 39.2485C24.2289 40.2514 26.526 39.7338 26.526 38.2456C26.526 36.078 29.2759 31.9368 33.2876 28.1516L34.161 27.3105C34.8404 26.6634 34.8082 25.5958 34.1288 24.9487C31.5083 22.6841 31.7024 22.7488 26.0083 22.7164Z" fill="#71430C"/>
</svg>
