<svg width="42" height="50" viewBox="0 0 42 50" fill="none" xmlns="http://www.w3.org/2000/svg">
<path fill-rule="evenodd" clip-rule="evenodd" d="M33.1259 5.5613C33.0436 5.221 33 4.86559 33 4.5C33 2.01472 35.0147 0 37.5 0C39.9853 0 42 2.01472 42 4.5C42 6.98528 39.9853 9 37.5 9C35.835 9 34.3811 8.0957 33.6029 6.75144C33.2454 7.44495 32.9379 8.21668 32.6763 9.03904C32.0835 10.9026 31.7555 12.9382 31.6046 14.6945C39.025 17.723 44.0458 28.7066 40.7285 36.309C34.613 50.3567 17.5972 54.4762 6.90158 44.4714C-0.707959 37.3425 1.10128 23.9135 8.49039 17.3324C8.4328 15.3067 8.11305 12.5204 7.3237 10.039C6.94283 8.84175 6.46473 7.75179 5.87662 6.85426C5.50874 8.09495 4.36006 9 3 9C1.34315 9 0 7.65685 0 6C0 4.34315 1.34315 3 3 3C4.39985 3 5.57576 3.95877 5.90689 5.25546C6.98408 6.44431 7.74478 8.06396 8.27665 9.73589C9.00406 12.0225 9.34617 14.5359 9.45745 16.5352C11.307 15.1274 13.457 14.1301 15.8573 13.7151C17.2645 13.4592 18.9789 13.5104 20.1303 13.7151C22.2029 14.0989 21.9982 15.5318 19.3628 14.9433C14.8337 13.9198 8.99976 19.8306 6.6457 26.6624C3.01226 37.2046 13.759 49.2308 24.9409 47.1582C32.2589 45.802 38.272 37.5884 37.3508 30.2704C36.6088 24.3339 31.0563 17.8859 27.1925 15.8389C23.8916 14.0989 24.6594 13.3569 29.0606 13.9966C29.5929 14.0728 30.1172 14.1911 30.6318 14.348C30.7974 12.5913 31.1338 10.5891 31.7234 8.73589C32.0795 7.61637 32.5382 6.5203 33.1259 5.5613ZM10.5862 34.1852C11.1748 39.0724 12.6589 41.5289 15.9852 43.0896C19.1069 44.5482 19.5419 43.2945 17.1623 41.0172C12.3262 36.3601 11.2516 33.2128 14.3477 31.7033C15.9598 30.9355 27.9092 31.396 27.9092 31.396C29.1117 31.3706 30.0841 32.3684 30.0072 33.5712C29.6745 38.8166 27.9603 43.1665 22.6638 43.1921C21.282 43.1921 20.8468 43.7293 21.7935 44.2412C26.7833 46.9278 32.8219 40.7868 32.9499 32.9058C33.0011 29.3491 26.1947 28.2744 11.9679 29.5795C10.1256 29.7842 10.0745 29.9377 10.5862 34.1852ZM26.1944 25.8438C26.0921 24.8971 25.8362 24.5644 24.915 24.1806C22.6377 23.2083 22.2539 21.5195 24.3522 21.5195C25.3243 21.5195 25.4269 21.4171 25.4269 20.3425C25.4269 19.6772 25.6315 18.9607 25.8619 18.7304C26.8855 17.7069 27.8577 18.4745 27.9857 20.4448L28.088 22.0312L29.8791 22.3127C33.1799 22.85 33.3077 24.3597 30.0326 24.3597H27.9088V25.8181C27.9088 27.7629 26.3736 27.8141 26.1944 25.8438ZM14.0146 25.0503C14.0146 24.0779 13.9123 24.0013 12.6074 24.0013C9.63918 24.0013 9.53691 20.854 12.3004 21.289C13.6054 21.4937 13.6821 21.4425 13.6821 20.6237C13.6821 20.1375 13.8611 19.3443 14.0915 18.8325C14.9359 16.9902 16.5223 18.0905 16.5223 20.5213C16.5223 21.6216 16.6503 21.7495 17.8528 22.0566C19.7207 22.5172 19.9254 23.6431 18.1343 23.6431C16.7781 23.6431 16.7014 23.7454 16.3433 25.8692C15.9337 28.3 14.0146 27.6091 14.0146 25.0503Z" fill="#314000"/>
</svg>
