<svg width="40" height="44" viewBox="0 0 40 44" fill="none" xmlns="http://www.w3.org/2000/svg">
<path fill-rule="evenodd" clip-rule="evenodd" d="M10.811 0.425548C3.67024 1.7967 4.92994e-05 7.23052 4.92994e-05 16.5493C-0.0249183 26.0965 9.43775 31.962 19.1751 28.4326L20.9728 27.7724C22.4459 29.3467 22.6956 29.3467 21.1227 30.3116C19.8743 31.0733 19.999 31.8605 20.798 32.1652C21.8716 32.5714 28.3883 38.9447 29.2621 40.4936C32.4829 46.2068 40.5225 44.2008 39.9732 39.7319C39.7235 37.7006 38.2004 35.3391 36.4028 33.6633C34.4053 31.7843 33.2818 30.2608 31.8087 27.4169C30.3856 24.6492 29.1123 24.0398 27.2647 25.1824C26.4658 25.6649 26.3908 25.6903 25.9664 25.284C25.0925 24.4969 25.1424 23.9636 26.216 22.3132C30.3107 15.9145 30.5354 10.3283 26.9151 5.88476C21.8716 -0.310811 17.5523 1.92366 20.4985 3.85343C27.6642 8.5255 27.2897 18.022 19.6496 25.1824C15.4051 29.1689 6.86619 27.036 4.66904 21.4499C1.19854 12.5628 6.91603 0.831815 16.179 2.7108C19.3749 3.54873 20.6482 -1.45344 10.811 0.425548ZM9.81227 6.74809C8.73866 7.66219 9.43775 8.44932 11.4352 7.05277C12.8333 6.08789 13.5076 5.91015 14.7809 6.21485C16.4537 6.59573 17.4773 6.16407 16.953 5.30076C16.7782 4.99606 13.108 3.92961 9.81227 6.74809ZM19.8243 6.41798C18.476 6.34181 18.1265 7.10357 19.0503 8.09384C20.1988 9.33803 22.4959 9.54117 22.371 8.39855C22.2961 7.6114 20.848 6.46876 19.8243 6.41798ZM28.5131 27.6962C28.7128 28.5342 30.6853 31.4796 31.7339 32.5714C33.0072 33.8664 33.5565 34.7297 35.2044 36.5579C38.55 40.2905 34.5552 43.9977 31.4092 39.3256C27.4394 33.4347 23.7442 31.5812 23.7941 30.8956C23.869 30.0323 28.3383 26.9853 28.5131 27.6962Z" fill="#314000"/>
</svg>
