<svg width="35" height="37" viewBox="0 0 35 37" fill="none" xmlns="http://www.w3.org/2000/svg">
<path fill-rule="evenodd" clip-rule="evenodd" d="M17.6062 10.0613L18.0161 11.405C17.6745 11.6782 14.7369 14.2972 14.5547 14.0012C14.5319 13.9784 9.47596 11.3366 6.0599 12.2704C2.32501 13.2952 -0.385021 17.2123 0.184322 22.1769C0.84476 27.8248 9.84047 30.8993 14.2813 26.9822L15.124 26.2306C15.4428 26.3673 17.6973 27.4377 18.0617 27.4377C18.2439 27.4377 18.2894 27.5743 18.1756 27.8476C15.5566 34.3609 26.3515 39.8493 31.7488 34.7253C34.9827 31.6508 33.4341 23.7255 29.4715 23.2017C28.0823 23.0196 27.9683 23.5889 29.1525 24.7959C33.2518 29.0318 27.9227 37.6858 23.2996 34.2925C18.2667 30.626 22.0017 23.179 26.8525 23.1334C27.5129 23.1334 27.7178 22.7463 27.2168 22.473C25.3038 21.4482 22.4797 22.268 20.2935 24.4998L18.9726 26.0485C18.7449 25.9574 16.6952 25.1375 16.0803 24.8642L16.6043 23.5661C17.5153 21.2888 17.5607 19.4213 16.6953 17.4172C16.0576 15.8914 16.0121 15.6864 16.3537 15.4815C16.8547 15.1854 19.041 13.5457 19.4054 13.2724L20.6124 14.0695C26.9435 18.2598 34.9143 14.5705 34.8916 7.44233C34.8688 3.73021 31.931 1.77167 28.8565 0.860725C19.6332 -1.82657 16.0348 5.00554 17.6062 10.0613ZM31.7715 6.80466C31.7715 13.5229 23.5503 16.5063 21.2729 10.6079C20.362 8.21663 20.7718 -0.186867 27.9683 1.99941C30.0179 2.6143 31.7715 4.3451 31.7715 6.80466ZM14.2813 16.1419C16.1488 18.8747 14.6458 24.4543 10.5693 26.5267C8.2008 27.7337 5.03517 26.1623 4.10145 23.3156C3.28159 20.8788 4.14704 17.8727 5.62733 15.9142C8.29185 12.3842 13.3248 14.7527 14.2813 16.1419Z" fill="#314000"/>
</svg>
