<svg width="48" height="30" viewBox="0 0 48 30" fill="none" xmlns="http://www.w3.org/2000/svg">
<path d="M43.8178 12.0159C42.3654 12.7672 42.165 12.7171 40.5121 10.7638C39.6857 9.78709 38.3836 8.58504 37.6073 8.08419L36.2299 7.18265L37.1314 6.3312C39.0096 4.60326 37.3318 3.50137 34.9277 4.85368L33.5754 5.60496C31.9226 5.00393 29.0426 3.9271 27.2646 3.62659C25.6619 3.35112 25.762 3.37616 25.762 3.35112C25.762 3.37616 25.762 3.45129 25.8622 1.54805C25.9123 0.746682 25.3113 0.0705278 24.535 0.0204424C22.9072 -0.104771 22.1809 0.320952 22.5065 1.97377L22.7318 3.05061C22.7318 3.05061 17.6732 3.60155 16.4712 3.7518C14.1172 4.05231 13.942 4.00223 13.942 3.05061C13.942 1.24754 9.23385 1.12232 10.6112 3.7518C10.9368 4.37787 11.1371 4.92881 11.087 5.00394C11.0369 5.05402 10.1855 5.50479 9.23385 5.9806C8.28223 6.45641 6.72956 7.53325 5.82802 8.33462L4.15024 9.81213L2.47233 9.01077C-0.0820249 7.80872 -0.758104 8.7353 0.919756 11.1895C1.79625 12.4917 1.79623 12.4917 1.14512 13.4433C-0.507702 15.7973 0.544018 18.1764 5.20196 22.659C10.0102 27.2919 20.6032 31.0734 22.7569 28.9197C23.3329 28.3437 21.8053 26.4154 20.7786 26.4154C13.5663 26.4154 3.29874 19.6038 4.35053 15.5219C5.62771 10.5634 15.8952 4.1024 27.1394 6.03069C33.5253 7.10752 37.3819 10.1878 40.3369 16.5236C40.8628 17.6505 41.3386 18.6772 41.4137 18.7774C42.0147 19.8292 33.9761 23.7609 27.3147 25.6892C25.0609 26.3403 24.7854 26.5156 24.7854 27.2669C24.7854 29.9715 30.7205 29.3955 34.9277 26.2902C39.836 22.6841 45.8714 20.5304 44.0933 16.5987C43.7177 15.7473 43.5674 15.0711 43.7677 14.996C45.0198 14.5452 46.898 13.1929 47.0232 12.667C47.2737 11.49 45.5458 11.0893 43.8178 12.0159Z" fill="#314000"/>
<path d="M31.8724 15.3215C31.7973 12.5168 30.5703 9.93736 29.0427 9.11095C28.5168 8.83548 27.7655 9.16104 28.0409 9.96241C29.5685 14.5953 24.4599 15.0711 22.9323 14.0694C19.3011 11.6403 21.029 9.06087 23.3079 8.33463C24.56 7.93395 24.0842 7.08249 21.0541 7.13258C16.0956 7.23275 12.8149 11.4399 12.84 15.1212C12.865 19.9544 16.6465 24.963 23.1576 24.6124C29.0927 24.3369 31.9976 20.881 31.8724 15.3215Z" fill="#314000"/>
</svg>
