<svg width="90" height="78" viewBox="0 0 90 78" fill="none" xmlns="http://www.w3.org/2000/svg">
<path d="M10.9344 20.7724C10.3512 17.986 9.08768 17.1112 8.37488 18.9579C7.50009 21.2907 8.18048 23.9475 9.67087 23.9475C11.0641 23.9475 11.4204 23.0403 10.9344 20.7724Z" fill="#314000"/>
<path d="M76.4792 74.2648C74.2436 73.3252 65.2688 70.2473 61.8344 69.2429C57.7521 68.0441 57.8818 68.1413 57.7522 66.0029C57.169 53.7234 56.5535 51.2286 55.2899 52.5246C54.966 52.8486 54.9981 59.0693 55.3545 63.6701C55.8081 69.3725 56.0673 69.6317 62.9684 71.6729C67.3748 72.9689 69.0921 73.6816 70.8093 74.3296C59.4693 74.3296 36.8868 74.3621 36.8868 74.2325C36.8868 74.1677 39.4787 72.904 42.6214 71.3813C49.6198 68.0117 48.9395 69.1133 48.7127 61.5317C48.3563 50.6454 48.3887 50.7102 43.6907 48.8958C40.3859 47.6322 36.6276 45.4614 34.6188 43.6794C33.0312 42.2862 32.8367 42.1891 32.4479 42.8047C31.2491 44.6838 25.7412 45.1698 22.7604 43.6794C10.2217 37.2967 13.8181 14.7788 26.8104 18.4076C28.6572 18.926 29.1433 18.9584 29.6293 18.602C32.0268 16.9496 49.6848 15.9452 59.9879 15.9128C60.8951 15.9128 69.3189 16.8848 63.4222 14.6816C57.493 12.446 38.9604 12.3164 30.5688 15.686C29.8236 15.9776 29.8561 13.0292 30.6012 12.284C32.0268 10.9232 43.4638 9.07646 54.9334 9.65966C60.7977 9.95126 66.1438 11.2148 68.995 12.0896C69.9022 12.3812 70.5501 13.2236 70.5501 14.1956V15.0704C70.5501 17.5976 71.5221 19.736 72.6561 19.736C73.1745 19.736 73.531 18.7316 73.2718 18.0512C72.7858 16.82 78.067 13.58 80.5618 13.58C89.5365 13.58 88.9531 28.1275 83.7692 36.4543C79.0064 44.1006 75.7666 45.3318 67.1159 42.7398C62.3855 41.3142 57.3958 40.9579 43.5287 42.7074C39.576 43.2258 40.7747 44.7486 45.8614 44.6514C58.1409 44.3922 64.8478 44.619 64.2322 45.267C63.5194 46.0446 60.2793 47.7942 58.1085 48.5394C54.6741 49.7382 56.4885 52.4274 59.4045 51.0666C61.5753 50.0298 65.2366 47.7618 66.8241 46.3038C68.1849 45.0726 68.3146 45.0078 68.995 45.429C76.6737 50.3214 84.9355 44.9754 88.8883 32.5015C93.1326 19.088 84.5468 7.26208 74.6001 12.8672L72.8504 13.8392L72.4941 12.77C71.9109 10.988 70.5177 9.69207 68.5413 8.97927C59.0157 5.67449 37.9236 5.51249 28.8193 10.2753C27.5881 10.9233 26.8104 12.2192 26.8104 13.6124C26.8104 13.6772 26.8104 16.5284 26.8104 16.4312L25.9033 16.2044C13.0406 12.9644 5.75051 31.1731 15.6 41.9622C19.5528 46.3038 25.482 47.8266 31.2168 45.9798L33.1932 45.3318L34.2624 46.401C35.8499 48.021 39.9647 50.289 43.1074 51.2934L45.9263 52.1682C46.2827 55.0841 46.3151 54.6629 46.1207 67.3961C43.9499 68.3681 32.0268 73.6169 29.5968 74.3945C27.0048 75.2044 27.7824 77.0512 29.7264 77.116C32.3508 77.2132 40.8071 77.278 50.6242 77.278C64.5886 77.278 77.1596 77.6668 77.1272 77.6668C78.488 77.8288 79.0712 75.3664 76.4792 74.2648Z" fill="#314000"/>
<path d="M32.5453 54.2092C32.1565 52.654 30.0181 53.0752 30.2773 54.6628C30.5365 56.2828 29.1433 58.648 27.3613 57.6112C25.5469 56.6068 25.5792 53.4316 29.208 53.3992C29.5968 53.3992 30.1476 53.2372 30.4068 53.0752C31.6704 52.2328 28.4305 51.3904 26.6809 52.1032C24.2509 53.1076 23.7648 57.352 25.9356 58.486C29.1108 60.1059 33.3229 57.3844 32.5453 54.2092Z" fill="#314000"/>
<path d="M28.3332 22.2307C23.6028 18.7963 16.896 21.2587 17.1552 29.0022C17.4468 36.8754 22.6955 41.8002 29.8883 40.9254C32.4803 40.6014 32.5451 40.5366 31.7351 37.977C27.9444 25.5355 30.1476 23.5591 28.3332 22.2307ZM27.1992 39.0138C22.9872 37.6206 20.946 34.5102 20.7192 29.2291C20.4924 23.3323 21.7235 21.5179 24.8339 23.1055L26.3892 23.8831L26.4539 26.4427C26.5187 29.2939 27.4583 34.5102 28.4627 37.3938C29.2403 39.6618 29.2404 39.6942 27.1992 39.0138Z" fill="#314000"/>
<path d="M9.15259 11.8302C10.7078 12.9966 11.5826 11.8626 11.5826 8.71987C11.5826 4.31349 10.3837 2.0131 8.95816 3.73029C8.21296 4.63748 8.37499 11.247 9.15259 11.8302Z" fill="#314000"/>
<path d="M76.1551 7.22943C78.5202 6.84063 79.9784 3.53584 78.3908 2.11025C77.4188 1.23545 76.9974 1.42987 77.2242 2.66107C77.4834 4.02186 76.1551 6.06304 74.5999 5.28544C73.0123 4.50785 72.8828 1.30026 76.6088 1.26786C77.3864 1.26786 77.6778 0.814254 77.127 0.490256C75.3775 -0.578937 72.4291 0.13389 71.4571 2.30468C70.3555 4.70226 72.4615 7.84502 76.1551 7.22943Z" fill="#314000"/>
<path d="M10.6428 15.0376C10.6428 16.0096 14.1743 15.9124 18.1595 14.8432C21.8207 13.8712 18.3216 12.7048 14.3688 13.5796C11.6472 14.1952 10.6428 14.584 10.6428 15.0376Z" fill="#314000"/>
<path d="M1.08488 14.1952C-0.178708 14.4544 -0.405507 15.4264 0.760885 15.718C2.15408 16.0744 7.95364 15.6856 8.53683 15.1996C9.83283 14.098 4.64886 13.4176 1.08488 14.1952Z" fill="#314000"/>
<path d="M79.3626 56.769C80.7882 57.1578 81.2417 56.5098 81.2417 54.1446C81.2417 51.0666 81.0473 50.5158 79.9457 50.5158C79.2977 50.5158 79.006 50.7102 78.844 51.2286C78.358 53.205 78.6498 56.5746 79.3626 56.769Z" fill="#314000"/>
<path d="M72.2349 40.5037C79.7193 44.3268 88.856 27.803 83.5749 19.9622C82.1493 17.8563 79.3951 16.8518 77.2243 17.6294C75.2803 18.3422 71.6515 22.133 72.0403 23.105C72.4615 24.239 71.5219 31.4641 70.5824 34.3153C69.1892 38.4625 69.3513 39.0133 72.2349 40.5037ZM72.3643 36.8425C73.2067 34.4125 74.1141 28.7426 74.1141 25.859C74.1141 21.0638 78.9417 17.0786 81.5337 19.703C83.9961 22.1654 81.5011 32.501 77.3863 37.0045C74.9563 39.6613 71.4247 39.5641 72.3643 36.8425Z" fill="#314000"/>
<path d="M78.3583 64.2853C77.2568 67.1365 78.391 70.2145 80.3998 69.7933C81.9226 69.5017 82.214 67.2661 81.0801 64.5121C80.5293 63.119 78.8443 62.9893 78.3583 64.2853Z" fill="#314000"/>
<path d="M88.6617 60.1056C87.2685 59.814 82.3113 59.7169 81.6309 59.9761C79.1685 60.8833 84.8059 62.3088 88.0782 61.596C89.4066 61.3045 89.7957 60.3324 88.6617 60.1056Z" fill="#314000"/>
<path d="M72.267 59.7819C71.6838 60.0087 71.7486 60.7539 72.3642 60.9807C73.9194 61.5963 78.6499 61.1103 78.6499 60.3651C78.6823 59.6523 73.7574 59.1987 72.267 59.7819Z" fill="#314000"/>
<path d="M60.5709 20.7727C60.0525 19.8331 52.3413 19.2499 46.2825 19.7359C41.2282 20.1247 36.433 21.0967 34.1002 22.0363C31.897 22.9435 32.4154 24.3367 34.6186 23.9479C37.6966 23.3971 49.4899 22.2955 52.9243 22.2955C59.5015 22.2631 61.1865 21.9391 60.5709 20.7727Z" fill="#314000"/>
</svg>
