<svg width="25" height="19" viewBox="0 0 25 19" fill="none" xmlns="http://www.w3.org/2000/svg">
<path d="M20.7126 2.44442C19.2163 1.74692 17.5963 1.24067 15.9088 0.948172C15.894 0.947699 15.8793 0.950475 15.8657 0.956306C15.8521 0.962138 15.8399 0.970882 15.8301 0.981922C15.6276 1.35317 15.3913 1.83692 15.2338 2.20817C13.4439 1.93817 11.6237 1.93817 9.83382 2.20817C9.67632 1.82567 9.44007 1.35317 9.22632 0.981922C9.21507 0.959422 9.18132 0.948172 9.14757 0.948172C7.46007 1.24067 5.85132 1.74692 4.34382 2.44442C4.33257 2.44442 4.32132 2.45567 4.31007 2.46692C1.25007 7.04567 0.406323 11.5007 0.822573 15.9107C0.822573 15.9332 0.833823 15.9557 0.856323 15.9669C2.88132 17.4519 4.82757 18.3519 6.75132 18.9482C6.78507 18.9594 6.81882 18.9482 6.83007 18.9257C7.28007 18.3069 7.68507 17.6544 8.03382 16.9682C8.05632 16.9232 8.03382 16.8782 7.98882 16.8669C7.34757 16.6194 6.74007 16.3269 6.14382 15.9894C6.09882 15.9669 6.09882 15.8994 6.13257 15.8657C6.25632 15.7757 6.38007 15.6744 6.50382 15.5844C6.52632 15.5619 6.56007 15.5619 6.58257 15.5732C10.4526 17.3394 14.6263 17.3394 18.4513 15.5732C18.4738 15.5619 18.5076 15.5619 18.5301 15.5844C18.6538 15.6857 18.7776 15.7757 18.9013 15.8769C18.9463 15.9107 18.9463 15.9782 18.8901 16.0007C18.3051 16.3494 17.6863 16.6307 17.0451 16.8782C17.0001 16.8894 16.9888 16.9457 17.0001 16.9794C17.3601 17.6657 17.7651 18.3182 18.2038 18.9369C18.2376 18.9482 18.2713 18.9594 18.3051 18.9482C20.2401 18.3519 22.1863 17.4519 24.2113 15.9669C24.2338 15.9557 24.2451 15.9332 24.2451 15.9107C24.7401 10.8144 23.4238 6.39317 20.7576 2.46692C20.7463 2.45567 20.7351 2.44442 20.7126 2.44442ZM8.61882 13.2219C7.46007 13.2219 6.49257 12.1532 6.49257 10.8369C6.49257 9.52067 7.43757 8.45192 8.61882 8.45192C9.81132 8.45192 10.7563 9.53192 10.7451 10.8369C10.7451 12.1532 9.80007 13.2219 8.61882 13.2219ZM16.4601 13.2219C15.3013 13.2219 14.3338 12.1532 14.3338 10.8369C14.3338 9.52067 15.2788 8.45192 16.4601 8.45192C17.6526 8.45192 18.5976 9.53192 18.5863 10.8369C18.5863 12.1532 17.6526 13.2219 16.4601 13.2219Z" fill="#5B66F6"/>
</svg>
