<svg width="28" height="28" viewBox="0 0 28 28" fill="none" xmlns="http://www.w3.org/2000/svg">
<path d="M13.7313 0.708252C11.9531 0.708252 10.1924 1.05848 8.54961 1.73895C6.90682 2.41942 5.41414 3.4168 4.1568 4.67414C1.61749 7.21345 0.190918 10.6575 0.190918 14.2486C0.190918 20.2335 4.07701 25.3111 9.45253 27.112C10.1296 27.2203 10.3462 26.8006 10.3462 26.435V24.1466C6.59551 24.9591 5.79663 22.3322 5.79663 22.3322C5.17378 20.7615 4.29365 20.3418 4.29365 20.3418C3.06148 19.5023 4.38843 19.5294 4.38843 19.5294C5.74247 19.6242 6.46011 20.924 6.46011 20.924C7.63812 22.9822 9.62856 22.3729 10.4004 22.0479C10.5222 21.1678 10.8743 20.572 11.2534 20.2335C8.24744 19.895 5.09253 18.7305 5.09253 13.5716C5.09253 12.0686 5.60707 10.8635 6.48719 9.90217C6.35179 9.56366 5.87787 8.15546 6.62259 6.32751C6.62259 6.32751 7.75999 5.96192 10.3462 7.70863C11.4159 7.41074 12.5804 7.26179 13.7313 7.26179C14.8822 7.26179 16.0467 7.41074 17.1164 7.70863C19.7026 5.96192 20.84 6.32751 20.84 6.32751C21.5847 8.15546 21.1108 9.56366 20.9754 9.90217C21.8555 10.8635 22.37 12.0686 22.37 13.5716C22.37 18.744 19.2016 19.8814 16.1821 20.2199C16.6696 20.6397 17.1164 21.4656 17.1164 22.7249V26.435C17.1164 26.8006 17.333 27.2338 18.0236 27.112C23.3991 25.2976 27.2717 20.2335 27.2717 14.2486C27.2717 12.4705 26.9214 10.7097 26.241 9.06695C25.5605 7.42415 24.5631 5.93148 23.3058 4.67414C22.0484 3.4168 20.5558 2.41942 18.913 1.73895C17.2702 1.05848 15.5094 0.708252 13.7313 0.708252Z" fill="#CACACA"/>
</svg>
