<svg width="29" height="28" viewBox="0 0 29 28" fill="none" xmlns="http://www.w3.org/2000/svg">
<path d="M14.5199 0C7.04558 0 0.979492 6.06609 0.979492 13.5404C0.979492 21.0147 7.04558 27.0807 14.5199 27.0807C21.9942 27.0807 28.0602 21.0147 28.0602 13.5404C28.0602 6.06609 21.9942 0 14.5199 0ZM22.3733 15.3412C22.4004 15.5308 22.4139 15.7339 22.4139 15.937C22.4139 18.9701 18.8799 21.4344 14.5199 21.4344C10.1599 21.4344 6.62583 18.9701 6.62583 15.937C6.62583 15.7339 6.63937 15.5308 6.66645 15.3412C5.97589 15.0298 5.50198 14.3393 5.50198 13.5404C5.49997 13.1521 5.61274 12.7719 5.82612 12.4475C6.03951 12.1231 6.34399 11.869 6.70132 11.7171C7.05866 11.5652 7.45291 11.5223 7.83457 11.5937C8.21622 11.6651 8.56825 11.8478 8.84645 12.1186C10.214 11.1302 12.1097 10.5073 14.2084 10.4396L15.2104 5.71404C15.224 5.61925 15.2781 5.53801 15.3594 5.49739C15.4406 5.44323 15.5354 5.42969 15.6302 5.44323L18.9069 6.14733C19.0181 5.92199 19.1875 5.73049 19.3976 5.59268C19.6077 5.45488 19.8508 5.3758 20.1018 5.36364C20.3527 5.35148 20.6024 5.40669 20.8248 5.52354C21.0472 5.64038 21.2343 5.81461 21.3667 6.02816C21.4991 6.2417 21.572 6.48677 21.5777 6.73796C21.5835 6.98915 21.5219 7.2373 21.3994 7.45668C21.277 7.67605 21.098 7.85866 20.8812 7.98557C20.6643 8.11247 20.4175 8.17905 20.1662 8.17838C19.4079 8.17838 18.7986 7.58261 18.758 6.83789L15.8197 6.21503L14.9261 10.4396C16.9978 10.5073 18.8528 11.1437 20.2068 12.1186C20.4144 11.9204 20.6628 11.77 20.9346 11.6778C21.2064 11.5856 21.495 11.5539 21.7804 11.5849C22.0657 11.6159 22.3408 11.7089 22.5864 11.8573C22.8321 12.0058 23.0423 12.2061 23.2024 12.4443C23.3625 12.6825 23.4687 12.9528 23.5134 13.2363C23.5582 13.5198 23.5405 13.8097 23.4615 14.0856C23.3825 14.3615 23.2442 14.6169 23.0562 14.8337C22.8683 15.0506 22.6352 15.2238 22.3733 15.3412Z" fill="#FF3F18"/>
</svg>
