<svg width="34" height="33" viewBox="0 0 34 33" fill="none" xmlns="http://www.w3.org/2000/svg">
<path d="M15.5354 17.6569C15.5354 16.8851 14.899 16.2487 14.1272 16.2487C13.3554 16.2487 12.719 16.8851 12.719 17.6569C12.719 18.0303 12.8674 18.3885 13.1314 18.6526C13.3955 18.9167 13.7537 19.0651 14.1272 19.0651C14.5007 19.0651 14.8589 18.9167 15.1229 18.6526C15.387 18.3885 15.5354 18.0303 15.5354 17.6569ZM20.0579 20.8659C19.4486 21.4752 18.1487 21.6919 17.2279 21.6919C16.3072 21.6919 15.0073 21.4752 14.398 20.8659C14.3651 20.8307 14.3252 20.8026 14.281 20.7833C14.2367 20.7641 14.189 20.7542 14.1407 20.7542C14.0925 20.7542 14.0447 20.7641 14.0005 20.7833C13.9562 20.8026 13.9164 20.8307 13.8835 20.8659C13.8482 20.8989 13.8201 20.9387 13.8009 20.983C13.7817 21.0272 13.7717 21.0749 13.7717 21.1232C13.7717 21.1714 13.7817 21.2192 13.8009 21.2634C13.8201 21.3077 13.8482 21.3475 13.8835 21.3805C14.8448 22.3418 16.6863 22.4231 17.2279 22.4231C17.7696 22.4231 19.611 22.3418 20.5724 21.3805C20.6077 21.3475 20.6358 21.3077 20.655 21.2634C20.6742 21.2192 20.6841 21.1714 20.6841 21.1232C20.6841 21.0749 20.6742 21.0272 20.655 20.983C20.6358 20.9387 20.6077 20.8989 20.5724 20.8659C20.437 20.7305 20.2068 20.7305 20.0579 20.8659ZM20.3287 16.2487C19.5569 16.2487 18.9205 16.8851 18.9205 17.6569C18.9205 18.4287 19.5569 19.0651 20.3287 19.0651C21.1005 19.0651 21.7369 18.4287 21.7369 17.6569C21.7369 16.8851 21.114 16.2487 20.3287 16.2487Z" fill="#FF3F18"/>
<path d="M16.5199 2C9.04558 2 2.97949 8.06609 2.97949 15.5404C2.97949 23.0147 9.04558 29.0807 16.5199 29.0807C23.9942 29.0807 30.0602 23.0147 30.0602 15.5404C30.0602 8.06609 23.9942 2 16.5199 2ZM24.3733 17.3412C24.4004 17.5308 24.4139 17.7339 24.4139 17.937C24.4139 20.9701 20.8799 23.4344 16.5199 23.4344C12.1599 23.4344 8.62583 20.9701 8.62583 17.937C8.62583 17.7339 8.63937 17.5308 8.66645 17.3412C7.97589 17.0298 7.50198 16.3393 7.50198 15.5404C7.49997 15.1521 7.61274 14.7719 7.82612 14.4475C8.03951 14.1231 8.34399 13.869 8.70132 13.7171C9.05866 13.5652 9.45291 13.5223 9.83457 13.5937C10.2162 13.6651 10.5683 13.8478 10.8464 14.1186C12.214 13.1302 14.1097 12.5073 16.2084 12.4396L17.2104 7.71404C17.224 7.61925 17.2781 7.53801 17.3594 7.49739C17.4406 7.44323 17.5354 7.42969 17.6302 7.44323L20.9069 8.14733C21.0181 7.92199 21.1875 7.73049 21.3976 7.59268C21.6077 7.45488 21.8508 7.3758 22.1018 7.36364C22.3527 7.35148 22.6024 7.40669 22.8248 7.52354C23.0472 7.64038 23.2343 7.81461 23.3667 8.02816C23.4991 8.2417 23.572 8.48677 23.5777 8.73796C23.5835 8.98915 23.5219 9.2373 23.3994 9.45668C23.277 9.67605 23.098 9.85867 22.8812 9.98557C22.6643 10.1125 22.4175 10.179 22.1662 10.1784C21.4079 10.1784 20.7986 9.58261 20.758 8.83789L17.8197 8.21503L16.9261 12.4396C18.9978 12.5073 20.8528 13.1437 22.2068 14.1186C22.4144 13.9204 22.6628 13.77 22.9346 13.6778C23.2064 13.5856 23.495 13.5539 23.7804 13.5849C24.0657 13.6159 24.3408 13.7089 24.5864 13.8573C24.8321 14.0058 25.0423 14.2061 25.2024 14.4443C25.3625 14.6825 25.4687 14.9528 25.5134 15.2363C25.5582 15.5198 25.5405 15.8097 25.4615 16.0856C25.3825 16.3615 25.2442 16.6169 25.0562 16.8337C24.8683 17.0506 24.6352 17.2238 24.3733 17.3412V17.3412Z" fill="#FF3F18"/>
</svg>
