<svg width="20" height="17" viewBox="0 0 20 17" fill="none" xmlns="http://www.w3.org/2000/svg">
<path fill-rule="evenodd" clip-rule="evenodd" d="M17.4826 0.365956C17.7127 0.26912 17.9645 0.235722 18.2119 0.269237C18.4592 0.302753 18.6931 0.401957 18.8891 0.556525C19.0851 0.711092 19.2361 0.915372 19.3264 1.1481C19.4167 1.38083 19.4429 1.6335 19.4024 1.87982L17.2908 14.6881C17.086 15.9235 15.7304 16.6321 14.5973 16.0166C13.6495 15.5018 12.2418 14.7085 10.9756 13.8809C10.3425 13.4665 8.40315 12.1398 8.64149 11.1957C8.84632 10.3885 12.1049 7.35523 13.967 5.55182C14.6979 4.8433 14.3646 4.43458 13.5015 5.0863C11.3573 6.70444 7.91715 9.16516 6.77942 9.85785C5.77577 10.4686 5.25253 10.5729 4.62687 10.4686C3.48542 10.2787 2.42684 9.98447 1.56284 9.62603C0.39532 9.14189 0.452113 7.53678 1.56191 7.0694L17.4826 0.365956Z" fill="#4EC6FE"/>
</svg>
