<svg width="22" height="17" viewBox="0 0 22 17" fill="none" xmlns="http://www.w3.org/2000/svg">
<path d="M21.0239 2.12923C20.2771 2.46867 19.4722 2.69173 18.6381 2.79841C19.4916 2.2844 20.1511 1.46975 20.4614 0.490222C19.6564 0.975135 18.7642 1.31458 17.8235 1.50854C17.0573 0.674489 15.9808 0.189575 14.7588 0.189575C12.4797 0.189575 10.6177 2.05164 10.6177 4.35014C10.6177 4.67988 10.6564 4.99992 10.7243 5.30057C7.27175 5.126 4.19739 3.46759 2.15106 0.955739C1.79222 1.56673 1.58856 2.2844 1.58856 3.04087C1.58856 4.48591 2.31593 5.76608 3.44093 6.49345C2.75235 6.49345 2.11226 6.29949 1.54976 6.00854V6.03763C1.54976 8.05488 2.98511 9.74238 4.88597 10.1206C4.27568 10.2876 3.63498 10.3109 3.0142 10.1885C3.27761 11.0153 3.79349 11.7387 4.48933 12.2571C5.18516 12.7755 6.02595 13.0628 6.89351 13.0786C5.42289 14.2428 3.59997 14.8721 1.72433 14.8631C1.39459 14.8631 1.06485 14.8437 0.735107 14.8049C2.57778 15.9881 4.76959 16.6766 7.11657 16.6766C14.7588 16.6766 18.9582 10.334 18.9582 4.83505C18.9582 4.65078 18.9582 4.47621 18.9485 4.29194C19.7631 3.71005 20.4614 2.97298 21.0239 2.12923Z" fill="#009BEF"/>
</svg>
